HIERARCHY
ROOT hip
{
  OFFSET 0 0 0
  CHANNELS 6 Xposition Yposition Zposition Zrotation Yrotation Xrotation
  JOINT abdomen
  {
    OFFSET 0 20.6881 -0.73152
    CHANNELS 3 Zrotation Xrotation Yrotation
    JOINT chest
    {
      OFFSET 0 11.7043 -0.48768
      CHANNELS 3 Zrotation Xrotation Yrotation
      JOINT neck
      {
        OFFSET 0 22.1894 -2.19456
        CHANNELS 3 Zrotation Xrotation Yrotation
        JOINT head
        {
          OFFSET -0.24384 7.07133 1.2192
          CHANNELS 3 Zrotation Xrotation Yrotation
          JOINT leftEye
          {
            OFFSET 4.14528 8.04674 8.04672
            CHANNELS 3 Zrotation Xrotation Yrotation
            End Site
            {
              OFFSET 1 0 0
            }
          }
          JOINT rightEye
          {
            OFFSET -3.6576 8.04674 8.04672
            CHANNELS 3 Zrotation Xrotation Yrotation
            End Site
            {
              OFFSET 1 0 0
            }
          }
        }
      }
      JOINT rCollar
      {
        OFFSET -2.68224 19.2634 -4.8768
        CHANNELS 3 Zrotation Xrotation Yrotation
        JOINT rShldr
        {
          OFFSET -8.77824 -1.95073 1.46304
          CHANNELS 3 Zrotation Xrotation Yrotation
          JOINT rForeArm
          {
            OFFSET -28.1742 -1.7115 0.48768
            CHANNELS 3 Zrotation Xrotation Yrotation
            JOINT rHand
            {
              OFFSET -22.5879 0.773209 7.07136
              CHANNELS 3 Zrotation Xrotation Yrotation
              JOINT rThumb1
              {
                OFFSET -1.2192 -0.487915 3.41376
                CHANNELS 3 Zrotation Xrotation Yrotation
                JOINT rThumb2
                {
                  OFFSET -3.37035 -0.52449 3.41376
                  CHANNELS 3 Zrotation Xrotation Yrotation
                  End Site
                  {
                    OFFSET -1.78271 -1.18214 1.43049
                  }
                }
              }
              JOINT rIndex1
              {
                OFFSET -7.75947 0.938293 5.60832
                CHANNELS 3 Zrotation Xrotation Yrotation
                JOINT rIndex2
                {
                  OFFSET -2.54057 -0.884171 1.56538
                  CHANNELS 3 Zrotation Xrotation Yrotation
                  End Site
                  {
                    OFFSET -1.62519 -0.234802 1.16502
                  }
                }
              }
              JOINT rMid1
              {
                OFFSET -8.24714 1.18213 3.41376
                CHANNELS 3 Zrotation Xrotation Yrotation
                JOINT rMid2
                {
                  OFFSET -3.10165 -0.590103 1.0647
                  CHANNELS 3 Zrotation Xrotation Yrotation
                  End Site
                  {
                    OFFSET -2.48547 -0.328903 0.83742
                  }
                }
              }
              JOINT rRing1
              {
                OFFSET -8.82822 0.546677 1.51678
                CHANNELS 3 Zrotation Xrotation Yrotation
                JOINT rRing2
                {
                  OFFSET -2.60934 -0.819778 -0.0198488
                  CHANNELS 3 Zrotation Xrotation Yrotation
                  End Site
                  {
                    OFFSET -2.33842 -0.294052 0.168128
                  }
                }
              }
              JOINT rPinky1
              {
                OFFSET -8.27202 -0.0477905 -0.4584
                CHANNELS 3 Zrotation Xrotation Yrotation
                JOINT rPinky2
                {
                  OFFSET -1.82734 -0.647385 -0.700984
                  CHANNELS 3 Zrotation Xrotation Yrotation
                  End Site
                  {
                    OFFSET -1.69225 -0.51767 -0.607171
                  }
                }
              }
            }
          }
        }
      }
      JOINT lCollar
      {
        OFFSET 2.68224 19.2634 -4.8768
        CHANNELS 3 Zrotation Xrotation Yrotation
        JOINT lShldr
        {
          OFFSET 8.77824 -1.95073 1.46304
          CHANNELS 3 Zrotation Xrotation Yrotation
          JOINT lForeArm
          {
            OFFSET 28.1742 -1.7115 0.48768
            CHANNELS 3 Zrotation Xrotation Yrotation
            JOINT lHand
            {
              OFFSET 22.5879 0.773209 7.07136
              CHANNELS 3 Zrotation Xrotation Yrotation
              JOINT lThumb1
              {
                OFFSET 1.2192 -0.487915 3.41376
                CHANNELS 3 Zrotation Xrotation Yrotation
                JOINT lThumb2
                {
                  OFFSET 3.37035 -0.52449 3.41376
                  CHANNELS 3 Zrotation Xrotation Yrotation
                  End Site
                  {
                    OFFSET 1.78271 -1.18214 1.43049
                  }
                }
              }
              JOINT lIndex1
              {
                OFFSET 7.75947 0.938293 5.60832
                CHANNELS 3 Zrotation Xrotation Yrotation
                JOINT lIndex2
                {
                  OFFSET 2.54057 -0.884171 1.56538
                  CHANNELS 3 Zrotation Xrotation Yrotation
                  End Site
                  {
                    OFFSET 1.62519 -0.234802 1.16502
                  }
                }
              }
              JOINT lMid1
              {
                OFFSET 8.24714 1.18213 3.41376
                CHANNELS 3 Zrotation Xrotation Yrotation
                JOINT lMid2
                {
                  OFFSET 3.10165 -0.590103 1.0647
                  CHANNELS 3 Zrotation Xrotation Yrotation
                  End Site
                  {
                    OFFSET 2.48547 -0.328903 0.83742
                  }
                }
              }
              JOINT lRing1
              {
                OFFSET 8.82822 0.546677 1.51678
                CHANNELS 3 Zrotation Xrotation Yrotation
                JOINT lRing2
                {
                  OFFSET 2.60934 -0.819778 -0.0198488
                  CHANNELS 3 Zrotation Xrotation Yrotation
                  End Site
                  {
                    OFFSET 2.33842 -0.294052 0.168128
                  }
                }
              }
              JOINT lPinky1
              {
                OFFSET 8.27202 -0.0477905 -0.4584
                CHANNELS 3 Zrotation Xrotation Yrotation
                JOINT lPinky2
                {
                  OFFSET 1.82734 -0.647385 -0.700984
                  CHANNELS 3 Zrotation Xrotation Yrotation
                  End Site
                  {
                    OFFSET 1.69225 -0.51767 -0.607171
                  }
                }
              }
            }
          }
        }
      }
    }
  }
  JOINT rButtock
  {
    OFFSET -8.77824 4.35084 1.2192
    CHANNELS 3 Zrotation Xrotation Yrotation
    JOINT rThigh
    {
      OFFSET 0 -1.70687 -2.19456
      CHANNELS 3 Zrotation Xrotation Yrotation
      JOINT rShin
      {
        OFFSET 0 -36.8199 0.73152
        CHANNELS 3 Zrotation Xrotation Yrotation
        JOINT rFoot
        {
          OFFSET 0.73152 -45.1104 -5.12064
          CHANNELS 3 Zrotation Xrotation Yrotation
          End Site
          {
            OFFSET -1.1221 -3.69964 12.103
          }
        }
      }
    }
  }
  JOINT lButtock
  {
    OFFSET 8.77824 4.35084 1.2192
    CHANNELS 3 Zrotation Xrotation Yrotation
    JOINT lThigh
    {
      OFFSET 0 -1.70687 -2.19456
      CHANNELS 3 Zrotation Xrotation Yrotation
      JOINT lShin
      {
        OFFSET 0 -36.8199 0.73152
        CHANNELS 3 Zrotation Xrotation Yrotation
        JOINT lFoot
        {
          OFFSET -0.73152 -45.1104 -5.12064
          CHANNELS 3 Zrotation Xrotation Yrotation
          End Site
          {
            OFFSET 1.1221 -3.69964 12.103
          }
        }
      }
    }
  }
}
MOTION
Frames:	4
Frame Time:	0.03333
-1.722960312385112 60.68726348876953 3.6142914332449436 -3.897773399949074 -8.370462879538536 -20.27498424053192 -9.166729599237442 19.39962923526764 1.2979048490524292 1.4776966720819473 -16.40300765633583 1.0334980487823486 1.138022392988205 14.431003332138062 6.187327802181244 3.633512780070305 -44.48665738105774 -0.367174968123436 -3.611650764942169 -4.961150251328945 -2.614589184522629 -1.9493523985147476 -2.9673707485198975 -4.466591142117977 -0.2843691408634186 -4.866097122430801 2.7186907455325127 29.400234818458557 40.73215216398239 37.20036417245865 -35.80940544605255 -26.82400792837143 67.61521697044373 -7.811785563826561 0.21241754293441772 -3.2188020274043083 -0.5322910845279694 -1.4842234924435616 5.394571423530579 -1.352938748896122 -0.0859379768371582 -1.7081014439463615 -5.833638310432434 4.882022067904472 0.35729438066482544 45.8655059337616 8.5435089468956 4.2241740971803665 -1.6257405281066895 -0.2583036641590297 3.728564903140068 5.204985179007053 4.14015993475914 -14.957335889339447 1.5445451997220516 -17.261767834424973 2.329532727599144 23.26489895582199 -3.1692834198474884 -5.077484026551247 -2.910536751151085 -6.570001915097237 -4.913836419582367 1.4619702100753784 3.3502959832549095 -4.4263724237680435 -0.18280318938195705 -2.161862477660179 -4.526038281619549 -57.65418469905853 41.952299773693085 -22.18343496322632 23.47104549407959 -26.71064704656601 -53.98977756500244 -3.3052751049399376 -5.861327424645424 -0.9360326081514359 0.35362042486667633 -2.7437118999660015 2.474653981626034 -14.348862022161484 -3.6487621441483498 -1.3315508142113686 -5.477571040391922 -3.6693061888217926 0.2754206210374832 -12.021102905273438 3.5728244483470917 -2.064612451940775 -23.704947531223297 4.37525387853384 3.4577811509370804 3.871363364160061 0.5281410366296768 -3.00071831792593 8.784926533699036 -2.2544851899147034 -2.411904036998749 -9.20148566365242 0.2070755884051323 1.9212845899164677 -1.2666718661785126 3.243758976459503 7.70276315510273 2.9288699850440025 0.28730280697345734 -3.9525146037340164 -2.6616222225129604 3.3328257501125336 5.156955868005753 -50.98048388957977 -38.734539449214935 -47.693763971328735 -21.444674134254456 55.54855942726135 25.456958413124084 -12.165855020284653 -6.560924649238586 0.7976088300347328 -8.199769109487534 -7.084207534790039 -26.96830540895462 55.16692399978638 -20.899375677108765 28.137563467025757 8.339307010173798 69.0654069185257 -13.096919506788254 -0.6417160760611296 4.2506371065974236 21.4765602350235
-1.7587382500059903 60.683746337890625 3.678072813898325 -3.893750086426735 -8.361557945609093 -20.330323576927185 -9.153683334589005 19.417482018470764 1.3188877701759338 1.4747140556573868 -16.409034579992294 1.019083857536316 1.137370616197586 14.431861639022827 6.194376647472382 3.6308305710554123 -44.488781690597534 -0.35937510430812836 -3.6238011717796326 -4.94804497808218 -2.6121483743190765 -1.9670335203409195 -2.9629719257354736 -4.46352269500494 -0.28807058930397034 -4.849386960268021 2.7185190841555595 29.42030042409897 40.7270023226738 37.20550328493118 -35.7987517118454 -26.82076781988144 67.61542081832886 -7.827685698866844 0.2044554054737091 -3.229799084365368 -0.5359925329685211 -1.4608775451779366 5.402843356132507 -1.358533836901188 -0.07895618677139282 -1.6821805760264397 -5.8253878355026245 4.869860932230949 0.35038501024246216 45.85786700248718 8.527480065822601 4.243888333439827 -1.6197752952575684 -0.25222577853128314 3.7124501913785934 5.1937199011445045 4.13941964507103 -14.941977560520172 1.5267192386090755 -17.27630004286766 2.3265501111745834 23.260838091373444 -3.1650669872760773 -5.064502134919167 -2.8941430896520615 -6.547396257519722 -4.904792010784149 1.4588293433189392 3.342099152505398 -4.41735751926899 -0.18769553862512112 -2.172902449965477 -4.532808177173138 -57.66299307346344 41.93750470876694 -22.15766429901123 23.48127543926239 -26.684978306293488 -53.9779007434845 -3.308107517659664 -5.837069526314735 -0.9444332867860794 0.35426415503025055 -2.7546767704188824 2.473302148282528 -14.33498963713646 -3.6515435948967934 -1.318005658686161 -5.475800782442093 -3.6684317886829376 0.2866268903017044 -12.021786868572235 3.5771052539348602 -2.059392873197794 -23.701020777225494 4.357229433953762 3.459937646985054 3.8674473389983177 0.5184421688318253 -2.9880234226584435 8.781107068061829 -2.257094979286194 -2.3886385560035706 -9.198814183473587 0.20933400839567184 1.9068543054163456 -1.2661917507648468 3.223460018634796 7.697535529732704 2.9129913076758385 0.2964169532060623 -3.945058062672615 -2.654568012803793 3.322654813528061 5.147750526666641 -50.98721086978912 -38.72002333402634 -47.70122051239014 -21.446970105171204 55.536510944366455 25.474014580249786 -12.159632295370102 -6.561243832111359 0.7920083776116371 -8.20961818099022 -7.081085443496704 -26.948736011981964 55.176494121551514 -20.883936882019043 28.15324902534485 8.364439308643341 69.08977746963501 -13.140660971403122 -0.6336104404181242 4.248351864516735 21.467698216438293
-1.794591021258384 60.67949295043945 3.7415212877094746 -3.8892976194620132 -8.35087202489376 -20.395823121070862 -9.138491302728653 19.437909722328186 1.3428586721420288 1.4712164551019669 -16.41617462038994 1.0021564364433289 1.1365579068660736 14.432167410850525 6.202798783779144 3.6277567595243454 -44.49083089828491 -0.35020194947719574 -3.6382368206977844 -4.933223091065884 -2.609010189771652 -1.987268105149269 -2.9582566022872925 -4.460046552121639 -0.29261425137519836 -4.830126017332077 2.7183688804507256 29.444153308868408 40.72102636098862 37.2110715508461 -35.78689634799957 -26.81703418493271 67.6157534122467 -7.845635041594505 0.19485309720039368 -3.242276720702648 -0.5399085581302643 -1.433926708996296 5.4122525453567505 -1.3642603531479836 -0.07053673267364502 -1.6523222252726555 -5.815871357917786 4.855328723788261 0.34203797578811646 45.8488655090332 8.508586585521698 4.26678366959095 -1.6123294830322266 -0.24465658469125628 3.6935459822416306 5.181381739675999 4.139011949300766 -14.924457371234894 1.5059964917600155 -17.293128222227097 2.3228218406438828 23.25616031885147 -3.1599493324756622 -5.050039663910866 -2.875807508826256 -6.521231308579445 -4.894438683986664 1.4554309844970703 3.33255048841238 -4.406926408410072 -0.19299021922051907 -2.1853693574666977 -4.540650956332684 -57.67397403717041 41.920360028743744 -22.127387523651123 23.4930557012558 -26.65516823530197 -53.96414637565613 -3.3109399303793907 -5.808670297265053 -0.9537620097398758 0.35542286932468414 -2.7679376117885113 2.471429966390133 -14.319314807653427 -3.653952218592167 -1.3022557273507118 -5.47412171959877 -3.6673106253147125 0.2999360114336014 -12.022854387760162 3.5816971957683563 -2.053175512701273 -23.696203529834747 4.336117766797543 3.4622765332460403 3.8629841431975365 0.5071554332971573 -2.972933314740658 8.776418566703796 -2.260117828845978 -2.3617467284202576 -9.195316582918167 0.2119840309023857 1.8891946412622929 -1.2654004991054535 3.199770748615265 7.69102044403553 2.8950687870383263 0.306512787938118 -3.9362067729234695 -2.647004183381796 3.310971111059189 5.137246996164322 -50.99474251270294 -38.70321661233902 -47.70965874195099 -21.45006000995636 55.5231374502182 25.494533479213715 -12.152132838964462 -6.561259925365448 0.7853564992547035 -8.22082981467247 -7.077797055244446 -26.926033794879913 55.18882155418396 -20.866164565086365 28.17196011543274 8.39415818452835 69.11772072315216 -13.192320317029953 -0.6239813100546598 4.2455194517970085 21.456915736198425
-1.8305104305036366 60.675689697265625 3.8046726174652576 -3.8853252679109573 -8.341269716620445 -20.453501343727112 -9.125155359506607 19.455204606056213 1.3636216521263123 1.468266025185585 -16.422719210386276 0.9872621297836304 1.1361153423786163 14.431824088096619 6.210330426692963 3.625069186091423 -44.49216663837433 -0.3420480340719223 -3.651175796985626 -4.920546971261501 -2.6061348617076874 -2.0047346502542496 -2.954303026199341 -4.457439444959164 -0.2965785562992096 -4.813552647829056 2.7183259651064873 29.465549290180206 40.71604281663895 37.21573323011398 -35.776569843292236 -26.813633143901825 67.61604309082031 -7.860580310225487 0.18631964921951294 -3.253145031630993 -0.5431272089481354 -1.4105458930134773 5.420535206794739 -1.3686859980225563 -0.06296485662460327 -1.6265193745493889 -5.807191729545593 4.8422931879758835 0.3342488408088684 45.841108560562134 8.491967618465424 4.286937788128853 -1.605774164199829 -0.23765065474435687 3.676530048251152 5.171210803091526 4.139011949300766 -14.90933507680893 1.487703826278448 -17.3074834048748 2.319522723555565 23.252383768558502 -3.1549175083637238 -5.037975087761879 -2.8603526204824448 -6.4983681589365005 -4.885818064212799 1.4524859189987183 3.323967419564724 -4.3981341272592545 -0.1973461266607046 -2.1960552781820297 -4.547388665378094 -57.684075236320496 41.90526455640793 -22.100672721862793 23.503167629241943 -26.62923663854599 -53.952451944351196 -3.313026688992977 -5.783972516655922 -0.9614116698503494 0.35672105848789215 -2.7796427719295025 2.469549737870693 -14.30574283003807 -3.655470348894596 -1.288420893251896 -5.47287181019783 -3.666103631258011 0.31172700226306915 -12.024182081222534 3.5852162539958954 -2.047376576811075 -23.692008554935455 4.317452274262905 3.464207723736763 3.8592397794127464 0.49737073481082916 -2.95914139598608 8.772373795509338 -2.262864410877228 -2.3383042216300964 -9.191915541887283 0.21418344229459763 1.872961912304163 -1.2644349038600922 3.17917138338089 7.684969380497932 2.879919670522213 0.31490810215473175 -3.92820306122303 -2.6410496793687344 3.300928920507431 5.128041654825211 -51.000890135765076 -38.68829280138016 -47.716509103775024 -21.452849507331848 55.51186680793762 25.51300585269928 -12.145545333623886 -6.5609487891197205 0.7796594873070717 -8.230442851781845 -7.075297236442566 -26.90643221139908 55.20010828971863 -20.850698947906494 28.18846106529236 8.420481383800507 69.14172649383545 -13.23794201016426 -0.6154250632971525 4.243126921355724 21.447206139564514
